SplineFontDB: 3.2
FontName: Untitled1
FullName: Untitled1
FamilyName: Untitled1
Weight: Regular
Copyright: Copyright (c) 2022, Darren Embry
UComments: "2022-5-7: Created with FontForge (http://fontforge.org)"
Version: 001.000
ItalicAngle: 0
UnderlinePosition: -220
UnderlineWidth: 109
Ascent: 960
Descent: 192
InvalidEm: 0
LayerCount: 2
Layer: 0 0 "Back" 1
Layer: 1 0 "Fore" 0
XUID: [1021 323 -1642646731 11131862]
OS2Version: 0
OS2_WeightWidthSlopeOnly: 0
OS2_UseTypoMetrics: 1
CreationTime: 1651977848
ModificationTime: 1651984646
OS2TypoAscent: 0
OS2TypoAOffset: 1
OS2TypoDescent: 0
OS2TypoDOffset: 1
OS2TypoLinegap: 0
OS2WinAscent: 0
OS2WinAOffset: 1
OS2WinDescent: 0
OS2WinDOffset: 1
HheadAscent: 0
HheadAOffset: 1
HheadDescent: 0
HheadDOffset: 1
OS2Vendor: 'PfEd'
MarkAttachClasses: 1
DEI: 91125
Encoding: UnicodeBmp
UnicodeInterp: none
NameList: AGL For New Fonts
DisplaySize: -72
AntiAlias: 1
FitToEm: 0
WinInfo: 32 8 6
BeginPrivate: 0
EndPrivate
BeginChars: 65536 63

StartChar: space
Encoding: 32 32 0
Width: 1152
Flags: H
LayerCount: 2
Fore
SplineSet
6533.17089844 110.3046875 m 4
 6529.7421875 137.279296875 6527.97558594 164.76953125 6527.97558594 192.669921875 c 4
 6527.97558594 245.59375 6534.40429688 296.057617188 6546.39746094 345.3125 c 1028
6604.59667969 119.380859375 m 4
 6601.54980469 143.359375 6599.97851562 167.795898438 6599.97851562 192.596679688 c 4
 6599.97851562 239.638671875 6605.69335938 284.49609375 6616.35351562 328.27734375 c 1028
6797.60253906 345.311523438 m 4
 6809.59667969 296.057617188 6815.95507812 244.606445312 6815.95507812 191.682617188 c 4
 6815.95507812 163.782226562 6814.2578125 137.27734375 6810.83007812 110.301757812 c 1028
6727.64746094 328.276367188 m 4
 6738.30859375 284.495117188 6743.9609375 238.76171875 6743.9609375 191.71875 c 4
 6743.9609375 166.91796875 6742.45214844 143.357421875 6739.40527344 119.377929688 c 1028
6760.12597656 409.307617188 m 4
 6778.29589844 392.377929688 6791.53808594 370.223632812 6797.60351562 345.311523438 c 1028
6546.39746094 345.311523438 m 4
 6552.47363281 370.262695312 6565.74707031 392.446289062 6583.9609375 409.38671875 c 1028
6616.35351562 328.27734375 m 4
 6618.73925781 338.072265625 6623.64160156 346.928710938 6630.34179688 354.030273438 c 4
 6640.78808594 365.102539062 6655.59375 372.017578125 6672.00195312 372.017578125 c 4
 6683.00097656 372.017578125 6693.33984375 368.857421875 6702.06835938 363.473632812 c 4
 6714.71191406 355.673828125 6724.03710938 343.106445312 6727.64746094 328.27734375 c 1028
6786.62109375 701.405273438 m 4
 6801.63476562 662.5390625 6809.86914062 620.311523438 6809.86914062 576.176757812 c 4
 6809.86914062 532.041015625 6801.63476562 489.461914062 6786.62109375 450.596679688 c 1028
6719.45800781 675.458984375 m 4
 6731.36621094 644.633789062 6737.89648438 611.143554688 6737.89648438 576.139648438 c 4
 6737.89648438 541.135742188 6731.36621094 507.365234375 6719.45800781 476.541015625 c 1028
6557.38085938 450.59765625 m 4
 6542.3671875 489.462890625 6534.1328125 531.689453125 6534.1328125 575.825195312 c 4
 6534.1328125 619.959960938 6542.3671875 662.538085938 6557.38085938 701.404296875 c 1028
6624.54492188 476.540039062 m 4
 6612.63671875 507.365234375 6606.10644531 540.85546875 6606.10644531 575.859375 c 4
 6606.10644531 610.86328125 6612.63671875 644.6328125 6624.54492188 675.458007812 c 1028
6583.97460938 409.14453125 m 4
 6572.49511719 420.932617188 6563.41503906 434.977539062 6557.38085938 450.596679688 c 1028
6786.62304688 450.600585938 m 4
 6780.58886719 434.98046875 6771.50878906 420.93359375 6760.02734375 409.145507812 c 1028
6719.45898438 476.543945312 m 4
 6715.24511719 465.63671875 6707.453125 456.598632812 6697.43847656 450.81640625 c 4
 6689.96582031 446.501953125 6681.29589844 444.032226562 6672.0546875 444.032226562 c 4
 6662.81347656 444.032226562 6654.03515625 446.501953125 6646.5625 450.81640625 c 4
 6636.54882812 456.59765625 6628.75683594 465.635742188 6624.54394531 476.541992188 c 1028
6810.83007812 110.301757812 m 4
 6805.203125 66.0283203125 6779.00097656 28.126953125 6741.97363281 6.7490234375 c 4
 6721.41796875 -5.1181640625 6697.57128906 -11.9111328125 6672.15039062 -11.9111328125 c 4
 6646.73046875 -11.9111328125 6622.58300781 -5.1181640625 6602.02832031 6.7490234375 c 4
 6565 28.126953125 6538.79785156 66.0283203125 6533.17089844 110.301757812 c 1028
6739.40527344 119.377929688 m 4
 6736.67285156 97.8828125 6723.95117188 79.4814453125 6705.97363281 69.1025390625 c 4
 6695.99414062 63.3408203125 6684.41601562 60.04296875 6672.07324219 60.04296875 c 4
 6659.73144531 60.04296875 6648.0078125 63.3408203125 6638.02832031 69.1025390625 c 4
 6620.05078125 79.482421875 6607.32910156 97.8837890625 6604.59667969 119.37890625 c 1028
6624.54394531 675.458007812 m 4
 6631.90039062 694.501953125 6650.37402344 708 6672.00097656 708 c 4
 6693.62792969 708 6712.1015625 694.501953125 6719.45800781 675.456054688 c 1028
6557.38085938 701.403320312 m 4
 6575.14941406 747.400390625 6619.76757812 780 6672.00097656 780 c 4
 6724.234375 780 6768.85351562 747.399414062 6786.62207031 701.401367188 c 1028
5562.94628906 445.752929688 m 0
 5586.99316406 561.05078125 5657.921875 659.098632812 5755.36132812 718.543945312 c 1024
5563.10839844 445.674804688 m 0
 5579.41699219 452.293945312 5597.24316406 455.940429688 5615.91503906 455.940429688 c 0
 5645.859375 455.940429688 5673.8515625 446.54296875 5696.66992188 430.565429688 c 0
 5730.37988281 406.961914062 5753.15039062 368.908203125 5756.27929688 325.462890625 c 1024
5684.46679688 320.290039062 m 0
 5686.83398438 287.423828125 5688.0390625 254.236328125 5688.0390625 220.770507812 c 0
 5688.0390625 187.3046875 5686.83398438 156.576171875 5684.46679688 123.708984375 c 1024
5756.27929688 325.463867188 m 0
 5758.77148438 290.8671875 5760.04003906 255.93359375 5760.04003906 220.706054688 c 0
 5760.04003906 185.478515625 5758.77148438 153.131835938 5756.27929688 118.53515625 c 1024
5756.27929688 118.53515625 m 0
 5753.1484375 75.0908203125 5730.37890625 37.0380859375 5696.66992188 13.4345703125 c 0
 5673.85058594 -2.54296875 5646.07910156 -11.921875 5616.13476562 -11.921875 c 0
 5581.76367188 -11.921875 5550.0390625 0.3955078125 5525.59765625 20.904296875 c 0
 5497.28808594 44.658203125 5478.5390625 79.4375 5475.72265625 118.536132812 c 1024
5684.46582031 123.708984375 m 0
 5683.09082031 104.626953125 5673.93945312 87.65234375 5660.12304688 76.05859375 c 0
 5648.19433594 66.0498046875 5632.81640625 60.01953125 5616.04199219 60.01953125 c 0
 5599.26660156 60.01953125 5583.80761719 66.0498046875 5571.87890625 76.05859375 c 0
 5558.06152344 87.6533203125 5548.91113281 104.626953125 5547.53710938 123.709960938 c 1024
4416.00097656 246 m 1
 4632.00097656 768 l 1
 4704.00097656 768 l 1
 4704.00097656 246 l 1
 4752.00097656 246 l 1
 4752.00097656 180 l 1
 4704.00097656 180 l 1
 4704.00097656 0 l 1
 4632.00097656 0 l 1
 4632.00097656 180 l 1
 4416.00097656 180 l 1
 4416.00097656 246 l 1
4632.00097656 595.3828125 m 1
 4632.00097656 246 l 1
 4487.42773438 246 l 1
 4632.00097656 595.3828125 l 1
-1666.64355469 60.0146484375 m 0
 -1667.1015625 60.0048828125 -1667.53808594 60 -1667.99902344 60 c 0
 -1698.91894531 60 -1724.61621094 82.603515625 -1729.53125 112.137695312 c 1024
-1606.46777344 112.138671875 m 0
 -1607.78125 104.24609375 -1610.61914062 96.7275390625 -1614.60351562 90.1298828125 c 1024
-9600 0 m 1
 -9468 768 l 1025
-9396 768 m 1
 -9264 0 l 1025
-9481.5703125 264 m 1
 -9432 552.40625 l 1025
-9432 552.40625 m 1
 -9382.4296875 264 l 1025
-9493.9453125 192 m 1
 -9370.0546875 192 l 1025
-9481.5703125 264 m 1
 -9382.4296875 264 l 1025
-9120 0 m 1
 -9120 768 l 1025
-9048 432 m 1
 -8989.25195312 432 l 1025
-9048 360 m 1
 -8989.25195312 360 l 1025
-9120 768 m 1
 -8989.25195312 768 l 1025
-9048 696 m 1
 -8989.23144531 696 l 1025
-8983.51171875 72 m 1
 -9048 72 l 1025
-8983.37890625 0 m 1
 -9120 0 l 1025
-8989.25195312 768 m 0
 -8921.61425781 768 -8864.81542969 721.197265625 -8849.39355469 658.286132812 c 1024
-8989.25195312 696 m 0
 -8955.43359375 696 -8927.03417969 672.599609375 -8919.32324219 641.14453125 c 1024
-8843.15039062 113.138671875 m 0
 -8857.32910156 48.5185546875 -8914.95410156 -0.0009765625 -8983.8046875 -0.0009765625 c 1024
-8913.47851562 128.56640625 m 0
 -8920.56835938 96.2578125 -8949.38085938 71.9990234375 -8983.8046875 71.9990234375 c 1024
-8849.38964844 469.711914062 m 0
 -8856.19140625 441.96484375 -8870.98535156 417.3046875 -8891.26660156 398.47265625 c 1024
-8919.32324219 486.857421875 m 0
 -8927.03417969 455.401367188 -8955.43359375 432 -8989.25195312 432 c 1024
-8983.8046875 360 m 0
 -8949.38085938 360 -8920.56835938 335.7421875 -8913.47851562 303.432617188 c 1024
-8843.15039062 318.861328125 m 0
 -8835.85839844 285.624023438 -8832.015625 251.100585938 -8832.015625 215.6875 c 0
 -8832.015625 180.2734375 -8835.85839844 146.375976562 -8843.15136719 113.137695312 c 1024
-8913.47851562 303.434570312 m 0
 -8907.28027344 275.181640625 -8904.01269531 245.8359375 -8904.01269531 215.734375 c 0
 -8904.01269531 185.631835938 -8907.28027344 156.818359375 -8913.47851562 128.56640625 c 1024
-8849.38867188 658.287109375 m 0
 -8841.96582031 628.0078125 -8838.02929688 596.366210938 -8838.02929688 563.8125 c 0
 -8838.02929688 531.2578125 -8841.96582031 499.991210938 -8849.38964844 469.711914062 c 1024
-8919.31835938 641.14453125 m 0
 -8913.24511719 616.370117188 -8910.02441406 590.481445312 -8910.02441406 563.846679688 c 0
 -8910.02441406 537.2109375 -8913.24511719 511.629882812 -8919.31835938 486.85546875 c 1024
-8983.8046875 360 m 1
 -8989.25195312 360 l 1025
-9468 768 m 1
 -9396 768 l 1025
-9370.0546875 192 m 1
 -9337.0546875 0 l 1025
-9526.9453125 0 m 1
 -9493.9453125 192 l 1025
-8449.34472656 111.014648438 m 0
 -8464.27050781 200.319335938 -8472.03808594 292.034179688 -8472.03808594 385.548828125 c 0
 -8472.03808594 479.061523438 -8464.27050781 567.677734375 -8449.34570312 656.98046875 c 1024
-8520.36035156 99.1484375 m 0
 -8535.93457031 192.334960938 -8544.04003906 288.036132812 -8544.04003906 385.616210938 c 0
 -8544.04003906 483.1953125 -8535.93457031 575.6640625 -8520.36035156 668.849609375 c 1024
-8520.36035156 668.848632812 m 0
 -8509.8359375 731.818359375 -8455.02929688 780 -8389.09082031 780 c 0
 -8315.63574219 780 -8256 720.364257812 -8256 646.909179688 c 1024
-8449.34570312 656.98046875 m 0
 -8444.51464844 685.884765625 -8419.35742188 708 -8389.09082031 708 c 0
 -8355.37402344 708 -8328 680.625976562 -8328 646.909179688 c 1024
-8520.359375 99.146484375 m 0
 -8509.83398438 36.1787109375 -8455.02832031 -12 -8389.09082031 -12 c 0
 -8315.63574219 -12 -8256 47.6357421875 -8256 121.090820312 c 1024
-8449.34472656 111.017578125 m 0
 -8444.51367188 82.1142578125 -8419.35644531 60 -8389.09082031 60 c 0
 -8355.37402344 60 -8328 87.3740234375 -8328 121.090820312 c 1024
-7867.11816406 634.908203125 m 0
 -7854.49609375 552.560546875 -7847.94824219 468.224609375 -7847.94824219 382.370117188 c 0
 -7847.94824219 296.516601562 -7854.49609375 215.439453125 -7867.11816406 133.092773438 c 1024
-7795.95019531 645.819335938 m 0
 -7782.77832031 559.891601562 -7775.94628906 471.88671875 -7775.94628906 382.298828125 c 0
 -7775.94628906 292.711914062 -7782.77832031 208.109375 -7795.95019531 122.181640625 c 1024
-7795.94921875 122.182617188 m 0
 -7806.53613281 53.11328125 -7866.27636719 0 -7938.28710938 0 c 1024
-7867.11816406 133.091796875 m 0
 -7872.41113281 98.556640625 -7902.28222656 72 -7938.28710938 72 c 1024
-7938.28710938 768 m 0
 -7866.27734375 768 -7806.53808594 714.887695312 -7795.95019531 645.819335938 c 1024
-7938.28710938 696 m 0
 -7902.28222656 696 -7872.41210938 669.443359375 -7867.11816406 634.909179688 c 1024
-7938.28710938 0 m 1
 -8064 0 l 1
 -8064 768 l 1
 -7938.28710938 768 l 1025
-7938.28710938 72 m 1
 -7992 72 l 1
 -7992 696 l 1
 -7938.28710938 696 l 1025
-7332 768 m 1
 -7332 696 l 1
 -7512 696 l 1
 -7512 432 l 1
 -7392 432 l 1
 -7392 360 l 1
 -7512 360 l 1
 -7512 72 l 1
 -7326 72 l 1
 -7326 0 l 1
 -7584 0 l 1
 -7584 768 l 1
 -7332 768 l 1
-6990 768 m 1
 -6990 696 l 1
 -7176 696 l 1
 -7176 432 l 1
 -7068 432 l 1
 -7068 360 l 1
 -7176 360 l 1
 -7176 72 l 1
 -7176 72 l 1
 -7176 0 l 1
 -7248 0 l 1
 -7248 768 l 1
 -6990 768 l 1
-6144 768 m 1
 -6072 768 l 1
 -6072 432 l 1
 -5928 432 l 1
 -5928 768 l 1
 -5856 768 l 1
 -5856 0 l 1
 -5928 0 l 1
 -5928 360 l 1
 -6072 360 l 1
 -6072 0 l 1
 -6144 0 l 1
 -6144 768 l 1
-5652 768 m 1
 -5580 768 l 1
 -5580 0 l 1
 -5652 0 l 1
 -5652 768 l 1
-5088 138.235351562 m 1
 -5088 768 l 1
 -5160 768 l 1
 -5160 137.83203125 l 1025
-5087.99902344 138 m 0
 -5087.99902344 61.9013671875 -5144.9453125 -1.0439453125 -5218.42089844 -10.716796875 c 0
 -5224.87890625 -11.5673828125 -5231.46582031 -12.005859375 -5238.15429688 -12.005859375 c 0
 -5300.12597656 -12.005859375 -5353.14648438 25.5556640625 -5376.00390625 79.2216796875 c 1024
-5159.99902344 138 m 0
 -5159.99902344 98.4287109375 -5189.61132812 65.697265625 -5227.81835938 60.6669921875 c 0
 -5231.17675781 60.2255859375 -5234.6015625 59.9970703125 -5238.08007812 59.9970703125 c 0
 -5270.3046875 59.9970703125 -5297.875 79.529296875 -5309.76074219 107.434570312 c 1024
-5376.00390625 79.22265625 m 1
 -5309.76074219 107.434570312 l 1025
-4824 488.309570312 m 1
 -4824 768 l 1
 -4896 768 l 1
 -4896 0 l 1
 -4824 0 l 1
 -4824 312 l 1025
-4620 768 m 1
 -4748.84179688 480 l 1025
-4608 0 m 1
 -4748.84179688 480 l 1025
-4683.03417969 0 m 1
 -4608 0 l 1025
-4698.875 768 m 1
 -4824 488.309570312 l 1025
-4683.03417969 0 m 1
 -4794.15625 378.709960938 l 1025
-4824 312 m 1
 -4794.15625 378.709960938 l 1025
-4416 0 m 1
 -4416 768 l 1
 -4344 768 l 1
 -4344 72 l 1
 -4158 72 l 1
 -4158 0 l 1
 -4416 0 l 1
-3936 768 m 1
 -3936 0 l 1
 -3864 0 l 1
 -3864 504 l 1025
-3600 768 m 1
 -3600 0 l 1
 -3672 0 l 1
 -3672 504 l 1025
-3768 168 m 1
 -3672 504 l 1025
-3864 504 m 1
 -3768 168 l 1025
-3768 430.083007812 m 1
 -3671.45214844 768 l 1025
-3864.546875 768 m 1
 -3768 430.083984375 l 1025
-3936 768 m 1
 -3864.546875 768 l 1025
-3600 768 m 1
 -3671.45214844 768 l 1025
-3288 516 m 1
 -3288 0 l 1
 -3360 0 l 1
 -3360 768 l 1
 -3288.96679688 768 l 1025
-3144 288.4921875 m 1
 -3144 768 l 1
 -3072 768 l 1
 -3072 0 l 1
 -3132 0 l 1025
-3288 516 m 1
 -3132 0 l 1025
-3072 0 m 1
 -3131.99902344 0 l 1025
-3288.96679688 768 m 1
 -3143.85058594 288 l 1025
-2881.53125 112.133789062 m 0
 -2896.33496094 201.0859375 -2904.0390625 292.426757812 -2904.0390625 385.552734375 c 0
 -2904.0390625 478.677734375 -2896.33496094 566.911132812 -2881.53125 655.862304688 c 1024
-2952.55371094 100.311523438 m 0
 -2968.00195312 193.1328125 -2976.04101562 288.4453125 -2976.04101562 385.62109375 c 0
 -2976.04101562 482.794921875 -2968.00195312 574.86328125 -2952.5546875 667.682617188 c 1024
-2758.46777344 655.861328125 m 0
 -2743.6640625 566.91015625 -2735.95996094 475.5703125 -2735.95996094 382.446289062 c 0
 -2735.95996094 289.322265625 -2743.6640625 201.08984375 -2758.46777344 112.138671875 c 1024
-2687.44433594 667.681640625 m 0
 -2671.99707031 574.86328125 -2663.95898438 479.551757812 -2663.95898438 382.37890625 c 0
 -2663.95898438 285.205078125 -2671.99707031 193.13671875 -2687.44433594 100.317382812 c 1024
-2881.53125 655.861328125 m 0
 -2876.61621094 685.395507812 -2850.91894531 708 -2819.99902344 708 c 0
 -2789.08007812 708 -2763.38378906 685.397460938 -2758.46777344 655.865234375 c 1024
-2952.5546875 667.682617188 m 0
 -2941.96582031 731.306640625 -2886.60742188 780 -2819.99902344 780 c 0
 -2753.39257812 780 -2698.03613281 731.30859375 -2687.4453125 667.6875 c 1024
-2758.46777344 112.138671875 m 0
 -2763.3828125 82.6044921875 -2789.08007812 60 -2820 60 c 0
 -2850.91992188 60 -2876.6171875 82.603515625 -2881.53222656 112.138671875 c 1024
-2687.4453125 100.313476562 m 0
 -2698.03613281 36.69140625 -2753.39257812 -12 -2820 -12 c 0
 -2886.60839844 -12 -2941.96582031 36.693359375 -2952.5546875 100.31640625 c 1024
-2482.01757812 768 m 1
 -2592 768 l 1
 -2592 0 l 1
 -2520 0 l 1
 -2520 336 l 1
 -2482.01953125 335.997070312 l 1025
-2482.01953125 407.997070312 m 1
 -2520 408 l 1
 -2520 696 l 1
 -2482.01757812 696 l 1025
-2328.04296875 667.19921875 m 0
 -2312.66796875 631.971679688 -2304.13867188 593.083984375 -2304.13867188 552.21875 c 0
 -2304.13867188 511.3515625 -2312.66894531 472.0234375 -2328.04589844 436.793945312 c 1024
-2394.03222656 638.400390625 m 0
 -2382.50097656 611.979492188 -2376.10351562 582.813476562 -2376.10351562 552.1640625 c 0
 -2376.10351562 521.513671875 -2382.50195312 492.016601562 -2394.03417969 465.594726562 c 1024
-2482.01855469 768 m 0
 -2413.13378906 768 -2353.95898438 726.580078125 -2328.04296875 667.198242188 c 1024
-2482.01855469 696 m 0
 -2442.65625 696 -2408.84179688 672.331054688 -2394.03320312 638.399414062 c 1024
-2328.046875 436.791992188 m 0
 -2353.96386719 377.4140625 -2413.13769531 335.997070312 -2482.01953125 335.997070312 c 1024
-2394.03417969 465.595703125 m 0
 -2408.84375 431.665039062 -2442.65722656 407.997070312 -2482.01953125 407.997070312 c 1024
-1919.99902344 0 m 1
 -2015.97265625 357.39453125 l 1025
-1994.55078125 0 m 1
 -2084.94824219 336.506835938 l 1025
-648 645 m 1
 -647.999023438 612 l 1
 -576 612 l 1
 -576 645 l 1025
-846 645 m 0
 -846 719.508789062 -785.508789062 780 -711 780 c 0
 -636.491210938 780 -576 719.508789062 -576 645 c 1024
-774 645 m 0
 -774 679.770507812 -745.770507812 708 -711 708 c 0
 -676.229492188 708 -648 679.770507812 -648 645 c 1024
-575.999023438 132 m 0
 -575.999023438 52.5244140625 -640.5234375 -12 -719.999023438 -12 c 0
 -799.475585938 -12 -863.999023438 52.5244140625 -863.999023438 132 c 1024
-647.999023438 132 m 0
 -647.999023438 92.26171875 -680.26171875 60 -719.999023438 60 c 0
 -759.737304688 60 -791.999023438 92.26171875 -791.999023438 132 c 1024
-863.999023438 132 m 1
 -864 180 l 1
 -791.999023438 180 l 1
 -791.999023438 132 l 1025
-746.966796875 388.495117188 m 0
 -810.45703125 459.013671875 -845.999023438 550.172851562 -845.999023438 645.061523438 c 1024
-693.462890625 436.674804688 m 0
 -745.0234375 493.96484375 -773.999023438 567.986328125 -773.999023438 645.061523438 c 1024
-746.966796875 388.495117188 m 0
 -683.516601562 317.985351562 -647.999023438 226.85546875 -647.999023438 132 c 1024
-693.499023438 436.715820312 m 0
 -618.119140625 352.978515625 -575.999023438 244.668945312 -575.999023438 132 c 1024
-709.55859375 454.440429688 m 1024
-735.014648438 428.984375 m 1024
-315 0 m 1
 -387 0 l 1
 -387 702 l 1
 -480 702 l 1
 -479.999023438 768 l 1
 -221.999023438 768 l 1
 -221.999023438 702 l 1
 -315 702 l 1
 -315 0 l 1
-6672 120 m 1
 -6672 288 l 1
 -6732 288 l 1
 -6732 360 l 1
 -6600 360 l 1
 -6600 120 l 1025
0.0009765625 132 m 1
 0 768 l 1
 72.0009765625 768 l 1
 72.0009765625 132 l 1025
288.000976562 132 m 1
 288 768 l 1
 216.000976562 768 l 1
 216.000976562 132 l 1025
288.000976562 132 m 0
 288.000976562 78.681640625 259.114257812 32.18359375 216.000976562 7.2919921875 c 0
 194.850585938 -4.9189453125 170.3125 -11.908203125 144.155273438 -11.908203125 c 0
 117.998046875 -11.908203125 93.1513671875 -4.9189453125 72.0009765625 7.2919921875 c 0
 28.8876953125 32.18359375 0.0009765625 78.681640625 0.0009765625 132 c 1024
216.000976562 132 m 0
 216.000976562 105.340820312 201.557617188 82.091796875 180.000976562 69.646484375 c 0
 169.42578125 63.5400390625 157.157226562 60.0458984375 144.078125 60.0458984375 c 0
 131 60.0458984375 118.576171875 63.5400390625 108.000976562 69.646484375 c 0
 86.4443359375 82.091796875 72.0009765625 105.340820312 72.0009765625 132 c 1024
480.000976562 768 m 1
 615.000976562 0 l 1025
816.000976562 768 m 1
 681.000976562 0 l 1025
615.000976562 0 m 1
 681.000976562 0 l 1025
742.897460938 768 m 1
 648.000976562 228.142578125 l 1025
553.103515625 768 m 1
 648.000976562 228.142578125 l 1025
1734.00097656 768 m 1
 1808.57910156 768 l 1025
2010.00097656 768 m 1
 1935.421875 768 l 1025
1728.00097656 0 m 1
 1802.58105469 0 l 1025
2016.00097656 0 m 1
 1941.42089844 0 l 1025
3168.00097656 720 m 1
 3168.00097656 660 l 1
 3228.00097656 660 l 1
 3228.00097656 0 l 1
 3300.00097656 0 l 1
 3300.00097656 768 l 1
 3234.00097656 768 l 1025
3233.98339844 767.979492188 m 0
 3216.37109375 746.93359375 3193.85253906 730.4296875 3168.00488281 720.000976562 c 1024
3234 767.999023438 m 0
 3233.98730469 767.9921875 3233.97460938 767.986328125 3233.96191406 767.979492188 c 1024
3456 0 m 1
 3744.00097656 0 l 1
 3744.00097656 72 l 1
 3533.68066406 72 l 1025
3456.00195312 0.0009765625 m 0
 3460.66308594 162.625976562 3512.2734375 314.978515625 3597.04003906 441.814453125 c 1024
3533.70117188 72.01171875 m 0
 3548.90722656 192.3359375 3592.56835938 305.594726562 3657 401.956054688 c 1024
3456.00195312 636 m 0
 3456.00195312 698.200195312 3495.47070312 751.1953125 3550.75097656 771.315429688 c 0
 3566.10351562 776.904296875 3582.67285156 779.952148438 3599.94824219 779.952148438 c 0
 3644.23242188 779.952148438 3683.88769531 760.052734375 3710.31152344 728.561523438 c 0
 3731.30957031 703.537109375 3743.9609375 671.27734375 3743.9609375 636.0859375 c 0
 3743.9609375 629.723632812 3743.59277344 623.520507812 3742.79199219 617.375976562 c 1024
3528.00097656 636 m 0
 3528.00097656 669.286132812 3550.66015625 697.319335938 3581.36523438 705.546875 c 0
 3587.31738281 707.141601562 3593.57128906 707.9921875 3600.0234375 707.9921875 c 0
 3626.68261719 707.9921875 3649.90917969 693.556640625 3662.35449219 672 c 0
 3668.45996094 661.424804688 3671.95507812 649.15625 3671.95507812 636.077148438 c 0
 3671.95507812 632.896484375 3671.796875 629.759765625 3671.39550781 626.6875 c 1024
3742.48632812 617.413085938 m 0
 3729.41601562 539.172851562 3699.45507812 465.405273438 3657 401.956054688 c 1024
3627.29199219 421.704101562 m 1024
3671.0390625 626.735351562 m 0
 3659.45507812 559.619140625 3633.55175781 496.329101562 3597.04003906 441.814453125 c 1024
3456.00097656 636 m 1
 3456.00097656 612 l 1
 3528.00097656 612 l 1
 3528.00097656 636 l 1025
4056.00097656 456 m 1
 4056.00097656 384 l 1
 4093.78515625 384 l 1025
3936.00097656 648 m 0
 3936.00097656 720.852539062 3995.1484375 780 4068.00097656 780 c 1024
4008.00097656 648 m 0
 4008.00097656 681.115234375 4034.88574219 708 4068.00097656 708 c 1024
4074.00097656 -12 m 0
 4035.91796875 -12 4001.39941406 3.439453125 3976.41992188 28.4189453125 c 0
 3951.44042969 53.3984375 3936.00097656 87.91796875 3936.00097656 126 c 1024
4074.00097656 60 m 0
 4055.78710938 60 4039.27832031 67.3837890625 4027.33105469 79.3310546875 c 0
 4015.38476562 91.27734375 4008.00097656 107.787109375 4008.00097656 126 c 1024
4056.00097656 456 m 1
 4079.40136719 456 l 1025
4211.65625 358.5 m 0
 4219.76074219 316.044921875 4224.00292969 272.2265625 4224.00292969 227.424804688 c 0
 4224.00292969 183.76953125 4219.97851562 142.2109375 4212.27441406 100.774414062 c 1024
4207.60742188 665.599609375 m 0
 4210.51660156 643.975585938 4212.01855469 621.908203125 4212.01855469 599.493164062 c 0
 4212.01855469 555.541992188 4206.16894531 513.588867188 4195.3359375 473.032226562 c 1024
3936.00097656 126 m 1
 3936.00097656 156 l 1
 4008.00097656 156 l 1
 4008.00097656 126 l 1025
4140.93359375 345 m 0
 4148.19921875 306.936523438 4152.00292969 267.650390625 4152.00292969 227.484375 c 0
 4152.00292969 188.344726562 4148.39453125 151.0859375 4141.48730469 113.935546875 c 1024
4195.33691406 473.033203125 m 0
 4190.79003906 456.01171875 4182.56933594 440.364257812 4171.61035156 427.206054688 c 1024
4125.77636719 491.614257812 m 0
 4120.30371094 471.125 4101.60644531 456 4079.40136719 456 c 1024
4136.25097656 655.999023438 m 0
 4138.734375 637.540039062 4140.01660156 618.703125 4140.01660156 599.568359375 c 0
 4140.01660156 562.048828125 4135.02246094 526.235351562 4125.77441406 491.61328125 c 1024
4076.78710938 780 m 0
 4143.62597656 780 4198.93359375 730.079101562 4207.60839844 665.600585938 c 1024
4076.78710938 708 m 0
 4107.16796875 708 4132.30859375 685.30859375 4136.25195312 656.000976562 c 1024
4171.66503906 427.295898438 m 0
 4192.02050781 409.931640625 4206.44335938 385.818359375 4211.65820312 358.500976562 c 1024
4093.78515625 384 m 0
 4117.1875 384 4136.70117188 367.176757812 4140.93457031 345 c 1024
3936.00097656 648 m 1
 4008.00097656 648 l 1025
4212.2734375 100.774414062 m 0
 4207.08105469 72.84375 4193.48144531 47.720703125 4174.1796875 28.4189453125 c 0
 4149.20019531 3.439453125 4114.68066406 -12 4076.59863281 -12 c 1024
4141.48632812 113.935546875 m 0
 4139.00292969 100.577148438 4132.49902344 88.5625 4123.26757812 79.3310546875 c 0
 4111.32128906 67.3837890625 4094.81152344 60 4076.59863281 60 c 1024
5074.88476562 696 m 1
 5268.00097656 696 l 1
 5268.00097656 768 l 1
 5004.00097656 768 l 1
 4998.00097656 384 l 1
 5071.984375 384.026367188 l 1025
5254.53027344 417.8984375 m 0
 5270.91015625 373.744140625 5279.86035156 325.993164062 5279.86035156 276.168945312 c 0
 5279.86035156 208.755859375 5263.37109375 144.560546875 5234.37109375 88.509765625 c 1024
5187.02246094 392.864257812 m 0
 5200.51367188 356.499023438 5207.88476562 317.172851562 5207.88476562 276.137695312 c 0
 5207.88476562 220.625 5194.30761719 167.759765625 5170.42675781 121.602539062 c 1024
5234.36914062 88.509765625 m 0
 5216.71875 54.404296875 5189.12304688 26.7451171875 5155.06542969 9.015625 c 0
 5129.41308594 -4.337890625 5100.26660156 -11.8876953125 5069.36914062 -11.8876953125 c 0
 5041.90234375 -11.8876953125 5015.47363281 -5.9365234375 4991.99804688 4.7705078125 c 1024
5170.42578125 121.602539062 m 0
 5160.37011719 102.171875 5145.078125 86.18359375 5126.18066406 75.2734375 c 0
 5109.43652344 65.60546875 5090.01074219 60.072265625 5069.30273438 60.072265625 c 0
 5052.46875 60.072265625 5036.26367188 63.7158203125 5021.87597656 70.2783203125 c 1024
4992.00097656 4.7705078125 m 1
 5021.87695312 70.2783203125 l 1025
5071.53808594 489.965820312 m 0
 5089.32226562 498.89453125 5109.52636719 504 5130.76660156 504 c 0
 5187.50292969 504 5235.88183594 468.181640625 5254.52929688 417.899414062 c 1024
5071.984375 384.025390625 m 0
 5077.57714844 411.36328125 5101.78613281 432 5130.76660156 432 c 0
 5156.55566406 432 5178.54589844 415.719726562 5187.02246094 392.864257812 c 1024
5074.88476562 696 m 1
 5071.53808594 489.965820312 l 1025
6162.58300781 696.009765625 m 1
 5952.00097656 696 l 1
 5952.00097656 768 l 1
 6240.00097656 768 l 1
 6240.00097656 696 l 1025
6048.67089844 0.021484375 m 0
 6087.55273438 239.6640625 6153.06640625 475.96875 6239.546875 695.985351562 c 1024
5976.0078125 0.0419921875 m 0
 6014.01757812 239.397460938 6078.03027344 475.634765625 6162.58300781 696.009765625 c 1024
5976.0078125 0.0419921875 m 1
 6048.67089844 0.0234375 l 1025
-8328 168 m 1
 -8328 121.07421875 l 1025
-8256 168 m 1
 -8256 121.03125 l 1025
-8328 168 m 1
 -8256 168 l 1025
-8256 646.909179688 m 1
 -8256 624 l 1025
-8328 646.909179688 m 1
 -8328 624 l 1025
-8328 624 m 1
 -8256 624 l 1025
-6793.34472656 111.014648438 m 0
 -6808.27050781 200.319335938 -6816.03808594 292.034179688 -6816.03808594 385.548828125 c 0
 -6816.03808594 479.061523438 -6808.27050781 567.677734375 -6793.34570312 656.98046875 c 1024
-6864.36035156 99.1484375 m 0
 -6879.93457031 192.334960938 -6888.04003906 288.036132812 -6888.04003906 385.616210938 c 0
 -6888.04003906 483.1953125 -6879.93457031 575.6640625 -6864.36035156 668.849609375 c 1024
-6864.36035156 668.848632812 m 0
 -6853.8359375 731.818359375 -6799.02929688 780 -6733.09082031 780 c 0
 -6659.63574219 780 -6600 720.364257812 -6600 646.909179688 c 1024
-6793.34570312 656.98046875 m 0
 -6788.51464844 685.884765625 -6763.35742188 708 -6733.09082031 708 c 0
 -6699.37402344 708 -6672 680.625976562 -6672 646.909179688 c 1024
-6864.359375 99.146484375 m 0
 -6853.83300781 36.1787109375 -6799.02832031 -12 -6733.09082031 -12 c 0
 -6659.63574219 -12 -6600 47.6357421875 -6600 121.090820312 c 1024
-6793.34472656 111.017578125 m 0
 -6788.51367188 82.1142578125 -6763.35644531 60 -6733.09082031 60 c 0
 -6699.37402344 60 -6672 87.3740234375 -6672 121.090820312 c 1024
-6600 646.909179688 m 1
 -6600 624 l 1025
-6672 646.909179688 m 1
 -6672 624 l 1025
-6672 624 m 1
 -6600 624 l 1025
3596.76660156 441.995117188 m 1
 3597.31152344 441.633789062 l 1025
3626.74707031 422.064453125 m 1
 3627.29199219 421.704101562 l 1025
3656.72753906 402.13671875 m 1
 3657.27148438 401.774414062 l 1025
4068.00097656 708 m 1
 4076.78710938 708 l 1025
4068.00097656 780 m 1
 4076.78710938 780 l 1025
-8891.45605469 398.48828125 m 0
 -8867.41015625 378.389648438 -8850.10351562 350.546875 -8843.15136719 318.862304688 c 1024
-1729.53125 112.133789062 m 0
 -1744.33496094 201.0859375 -1752.0390625 292.426757812 -1752.0390625 385.552734375 c 0
 -1752.0390625 478.677734375 -1744.33496094 566.911132812 -1729.53125 655.862304688 c 1024
-1800.55371094 100.311523438 m 0
 -1816.00195312 193.1328125 -1824.04003906 288.4453125 -1824.04003906 385.62109375 c 0
 -1824.04003906 482.794921875 -1816.00195312 574.86328125 -1800.5546875 667.682617188 c 1024
-1606.46679688 655.861328125 m 0
 -1591.66308594 566.91015625 -1583.95996094 475.571289062 -1583.95996094 382.446289062 c 0
 -1583.95996094 289.322265625 -1591.66308594 201.08984375 -1606.46679688 112.138671875 c 1024
-1535.44433594 667.681640625 m 0
 -1519.99707031 574.86328125 -1511.95800781 479.551757812 -1511.95800781 382.37890625 c 0
 -1511.95800781 285.205078125 -1519.99707031 193.13671875 -1535.44433594 100.317382812 c 1024
-1729.53125 655.861328125 m 0
 -1724.61621094 685.396484375 -1698.91894531 708 -1667.99902344 708 c 0
 -1637.08007812 708 -1611.38378906 685.397460938 -1606.46777344 655.865234375 c 1024
-1800.5546875 667.682617188 m 0
 -1789.96582031 731.306640625 -1734.60742188 780 -1667.99902344 780 c 0
 -1601.39257812 780 -1546.03613281 731.30859375 -1535.4453125 667.6875 c 1024
-1624.31445312 -4.701171875 m 0
 -1638.00390625 -9.4072265625 -1652.72167969 -12 -1667.99902344 -12 c 0
 -1734.60742188 -12 -1789.96582031 36.693359375 -1800.5546875 100.31640625 c 1024
-1535.4453125 100.313476562 m 0
 -1540.16894531 71.93359375 -1553.78125 46.4091796875 -1573.34375 26.9951171875 c 1024
-2098.01757812 768 m 1
 -2208 768 l 1
 -2208 0 l 1
 -2135.99902344 0 l 1
 -2135.99902344 336 l 1
 -2098.01855469 335.997070312 l 1025
-2098.01855469 407.997070312 m 1
 -2135.99902344 408 l 1
 -2135.99902344 696 l 1
 -2098.01757812 696 l 1025
-1944.04296875 667.19921875 m 0
 -1928.66796875 631.971679688 -1920.13867188 593.083984375 -1920.13867188 552.21875 c 0
 -1920.13867188 511.3515625 -1928.66894531 472.0234375 -1944.04589844 436.793945312 c 1024
-2010.03222656 638.400390625 m 0
 -1998.50097656 611.979492188 -1992.10351562 582.813476562 -1992.10351562 552.1640625 c 0
 -1992.10351562 521.513671875 -1998.50195312 492.016601562 -2010.03417969 465.594726562 c 1024
-2098.01855469 768 m 0
 -2029.13378906 768 -1969.95898438 726.580078125 -1944.04296875 667.198242188 c 1024
-2098.01855469 696 m 0
 -2058.65625 696 -2024.84179688 672.331054688 -2010.03320312 638.399414062 c 1024
-1944.046875 436.791992188 m 0
 -1958.78320312 403.030273438 -1984.03808594 375.266601562 -2015.97265625 357.39453125 c 1024
-2084.94824219 336.506835938 m 0
 -2089.3125 336.166015625 -2093.56738281 335.997070312 -2098.01855469 335.997070312 c 1024
-2010.03417969 465.595703125 m 0
 -2024.84375 431.665039062 -2058.65722656 407.997070312 -2098.01855469 407.997070312 c 1024
-4620 768 m 1
 -4698.875 768 l 1025
-1919.99902344 0 m 1
 -1994.55078125 0 l 1025
-1666.64257812 60.0146484375 m 1
 -1697.99902344 108 l 1
 -1647.78125 140.834960938 l 1
 -1614.60351562 90.1298828125 l 1025
-1573.34375 26.9951171875 m 1
 -1545.78125 -15.1650390625 l 1
 -1595.99902344 -48 l 1
 -1624.31445312 -4.701171875 l 1025
480.000976562 768 m 1
 553.103515625 768 l 1025
816.000976562 768 m 1
 742.897460938 768 l 1025
1128.56347656 768 m 1
 1056.00097656 768 l 1
 1152.00097656 0 l 1
 1218.00097656 0 l 1
 1266.00097656 384 l 1
 1314.00097656 0 l 1
 1380.00097656 0 l 1
 1476.00097656 768 l 1
 1403.4375 768 l 1025
1185.00195312 316.485351562 m 1
 1128.56347656 768 l 1025
1347.00097656 316.494140625 m 1
 1403.4375 768 l 1025
1290.56054688 768 m 1
 1347.00097656 316.494140625 l 1025
1185.00195312 316.485351562 m 1
 1241.44140625 768 l 1025
1241.44140625 768 m 1
 1290.56152344 768 l 1025
1808.57910156 768 m 1
 1734.00097656 768 l 1
 1834.24707031 393.38671875 l 1
 1728.00097656 0 l 1
 1802.58105469 0 l 1
 1872.00097656 257.036132812 l 1
 1941.42089844 0 l 1
 2016.00097656 0 l 1
 1909.29101562 395.106445312 l 1
 2010.00097656 768 l 1
 1935.421875 768 l 1
 1872.00097656 533.176757812 l 1
 1808.57910156 768 l 1025
2208.00097656 768 m 1
 2281.89257812 768 l 1
 2352.00097656 464.200195312 l 1
 2422.10839844 768 l 1
 2496.00097656 768 l 1
 2388.00097656 300 l 1
 2388.00097656 0 l 1
 2316.00097656 0 l 1
 2316.00097656 300 l 1
 2208.00097656 768 l 1025
2706.00097656 768 m 1
 2976.00097656 768 l 1
 2976.00097656 708 l 1
 2767.69433594 72 l 1
 2976.00097656 72 l 1
 2976.00097656 0 l 1
 2688.00097656 0 l 1
 2688.00097656 60 l 1
 2896.30664062 696 l 1
 2706.00097656 696 l 1
 2706.00097656 768 l 1
5475.72167969 118.533203125 m 0
 5473.22949219 153.130859375 5471.96191406 188.065429688 5471.96191406 223.293945312 c 0
 5471.96191406 294.986328125 5477.20214844 362.725585938 5487.33886719 431.620117188 c 1024
5547.53613281 123.705078125 m 0
 5545.16796875 156.572265625 5543.96386719 189.759765625 5543.96386719 223.2265625 c 0
 5543.96386719 256.692382812 5545.16796875 287.421875 5547.53613281 320.2890625 c 1024
5480.15039062 278.95703125 m 1024
5517.66992188 279.568359375 m 1024
5547.53710938 320.291992188 m 0
 5548.86035156 338.665039062 5557.40039062 355.094726562 5570.36816406 366.635742188 c 0
 5582.49609375 377.428710938 5598.47265625 383.989257812 5615.96972656 383.989257812 c 0
 5631.30371094 383.989257812 5645.55859375 378.927734375 5656.99121094 370.416992188 c 0
 5672.55175781 358.833007812 5682.98925781 340.788085938 5684.46582031 320.290039062 c 1024
5487.33886719 431.619140625 m 0
 5509.03222656 579.056640625 5595.71679688 705.491210938 5717.86230469 780.0078125 c 1024
5717.84863281 780 m 1
 5755.34863281 718.536132812 l 1025
-9600 0 m 1
 -9526.9453125 0 l 1025
-9337.0546875 0 m 1
 -9264 0 l 1025
-9048 696 m 1
 -9048 432 l 1025
-9048 360 m 1
 -9048 72 l 1025
4074.00097656 -12 m 1
 4076.59863281 -12 l 1025
4074.00097656 60 m 1
 4076.59863281 60 l 1025
EndSplineSet
EndChar

StartChar: A
Encoding: 65 65 1
Width: 432
Flags: HW
LayerCount: 2
Fore
SplineSet
180 768 m 1
 252 768 l 1
 384 0 l 1
 310.9453125 0 l 1
 277.9453125 192 l 1
 154.0546875 192 l 1
 121.0546875 0 l 1
 48 0 l 1
 180 768 l 1
166.4296875 264 m 5
 265.5703125 264 l 1
 216 552.40625 l 1
 166.4296875 264 l 5
EndSplineSet
EndChar

StartChar: B
Encoding: 66 66 2
Width: 384
Flags: HW
LayerCount: 2
Fore
SplineSet
318.625976562 469.711914062 m 0
 311.82421875 441.96484375 296.840820312 417.3203125 276.559570312 398.48828125 c 1
 300.416015625 378.405273438 317.913085938 350.545898438 324.865234375 318.861328125 c 0
 332.158203125 285.623046875 336 251.100585938 336 215.6875 c 0
 336 180.2734375 332.15625 146.375 324.864257812 113.137695312 c 0
 310.6875 48.517578125 253.061523438 -0.0009765625 184.2109375 -0.0009765625 c 1
 48.015625 0 l 1
 48.015625 768 l 1
 178.763671875 768 l 1
 246.401367188 768 303.205078125 721.198242188 318.626953125 658.287109375 c 0
 326.0546875 628.008789062 329.986328125 596.366210938 329.986328125 563.8125 c 0
 329.986328125 531.2578125 326.049804688 499.991210938 318.625976562 469.711914062 c 0
120.015625 432 m 1
 178.763671875 432 l 1
 212.58203125 432 240.981445312 455.40234375 248.692382812 486.857421875 c 0
 254.765625 511.631835938 257.991210938 537.2109375 257.991210938 563.846679688 c 0
 257.991210938 590.481445312 254.775390625 616.370117188 248.697265625 641.14453125 c 0
 240.986328125 672.599609375 212.561523438 696 178.763671875 696 c 1
 120.015625 696 l 1
 120.015625 432 l 1
120.015625 72 m 1
 184.50390625 72 l 0
 218.927734375 72 247.447265625 96.2578125 254.537109375 128.56640625 c 0
 260.736328125 156.818359375 264.002929688 185.631835938 264.002929688 215.734375 c 0
 264.002929688 245.8359375 260.735351562 275.18359375 254.537109375 303.434570312 c 0
 247.448242188 335.744140625 218.634765625 360 184.2109375 360 c 1
 178.763671875 360 l 1
 120.015625 360 l 5
 120.015625 72 l 1
EndSplineSet
EndChar

StartChar: V
Encoding: 86 86 3
Width: 432
Flags: HW
LayerCount: 2
Fore
SplineSet
183 0 m 5
 249 0 l 1
 384 768 l 1
 310.896484375 768 l 1
 216 228.142578125 l 1
 121.102539062 768 l 1
 48 768 l 1
 183 0 l 5
EndSplineSet
EndChar

StartChar: S
Encoding: 83 83 4
Width: 384
Flags: HW
LayerCount: 2
Fore
SplineSet
120.000976562 132 m 1
 120.000976562 92.26171875 152.262695312 60 192.000976562 60 c 0
 231.73828125 60 264.000976562 92.26171875 264.000976562 132 c 0
 264.000976562 226.85546875 228.483398438 317.985351562 165.033203125 388.495117188 c 0
 101.56072026 459.029650114 66.001953125 550.234375 66.0009765625 645.061523438 c 0
 66.0002092454 719.570312496 126.491210938 780 201 780 c 0
 275.508789062 780 336 719.508789062 336 645 c 1
 336 612 l 1
 264.000976562 612 l 1
 264 645 l 1
 264 679.770507812 235.770507812 708 201 708 c 0
 166.229492188 708 138.000976562 679.83203125 138.000976562 645.061523438 c 0
 138.001953125 568.047851562 167.006697963 493.918429911 218.537109375 436.674804688 c 0
 293.916992188 352.9375 336.000976562 244.668945312 336.000976562 132 c 0
 336.000976562 52.5244140625 271.4765625 -12 192.000976562 -12 c 0
 112.524414062 -12 48.0009765625 52.5244140625 48.0009765625 132 c 0
 48 180 l 1
 120.000976562 180 l 1
 120.000976562 132 l 1
EndSplineSet
EndChar

StartChar: C
Encoding: 67 67 5
Width: 384
Flags: HW
LayerCount: 2
Fore
SplineSet
336.040039062 646.909179688 m 1
 336.040039062 720.364257812 276.404296875 780 202.94921875 780 c 0
 137.010742188 780 82.2041015625 731.817382812 71.6796875 668.848632812 c 0
 56.10546875 575.663085938 48 483.1953125 48 385.616210938 c 0
 48 288.036132812 56.1064453125 192.333007812 71.6806640625 99.146484375 c 0
 82.20703125 36.1767578125 137.01171875 -12 202.94921875 -12 c 0
 276.404296875 -12 336.040039062 47.576171875 336.040039062 121.03125 c 0
 336.040039062 120.971679688 336.040039062 168 336.040039062 168 c 1
 264.040039062 168 l 1
 264.040039062 168 264.040039062 121.057617188 264.040039062 121.07421875 c 0
 264.040039062 87.357421875 236.666015625 60 202.94921875 60 c 0
 172.68359375 60 147.526367188 82.1171875 142.6953125 111.017578125 c 0
 127.76953125 200.322265625 120.001953125 292.034179688 120.001953125 385.548828125 c 0
 120.001953125 479.061523438 127.76953125 567.677734375 142.694335938 656.98046875 c 0
 147.525390625 685.884765625 172.682617188 708 202.94921875 708 c 0
 236.666015625 708 264.040039062 680.625976562 264.040039062 646.909179688 c 0
 264.040039062 624 l 1
 336.040039062 624 l 1
 336.040039062 646.909179688 l 1
EndSplineSet
EndChar

StartChar: D
Encoding: 68 68 6
Width: 384
Flags: HW
LayerCount: 2
Fore
SplineSet
173.712890625 696 m 1
 209.717773438 696 239.5883512 669.444406537 244.881835938 634.909179688 c 0
 257.50390625 552.561523438 264.051757812 468.224609375 264.051757812 382.370117188 c 0
 264.051757812 296.516601562 257.50390625 215.438476562 244.881835938 133.091796875 c 0
 239.588867188 98.5556640625 209.717773438 72 173.712890625 72 c 0
 120 72 l 1
 120 696 l 1
 173.712890625 696 l 1
173.712890625 0 m 1
 245.723632812 0 305.463318161 53.114491653 316.05078125 122.182617188 c 0
 329.22265625 208.110351562 336.053710938 292.711914062 336.053710938 382.298828125 c 0
 336.053710938 471.88671875 329.221679688 559.891601562 316.049804688 645.819335938 c 0
 305.461914062 714.887695312 245.72265625 768 173.712890625 768 c 0
 48 768 l 1
 48 0 l 1
 173.712890625 0 l 1
EndSplineSet
EndChar

StartChar: E
Encoding: 69 69 7
Width: 354
Flags: HW
LayerCount: 2
Fore
SplineSet
300 768 m 1
 300 696 l 1
 120 696 l 1
 120 432 l 1
 240 432 l 1
 240 360 l 1
 120 360 l 1
 120 72 l 1
 306 72 l 1
 306 0 l 1
 48 0 l 1
 48 768 l 5
 300 768 l 1
EndSplineSet
EndChar

StartChar: F
Encoding: 70 70 8
Width: 354
Flags: HW
LayerCount: 2
Fore
SplineSet
120 360 m 1
 228 360 l 1
 228 432 l 1
 120 432 l 1
 120 696 l 1
 306 696 l 1
 306 768 l 1
 48 768 l 1
 48 0 l 1
 120 0 l 1
 120 360 l 1
EndSplineSet
EndChar

StartChar: G
Encoding: 71 71 9
Width: 384
Flags: HW
LayerCount: 2
Fore
SplineSet
336 121.090820312 m 5
 336 48.7265625 276.364257812 -12 202.909179688 -12 c 0
 136.971679688 -12 82.16796875 36.1767578125 71.640625 99.146484375 c 0
 56.06640625 192.333007812 47.9599609375 288.036132812 47.9599609375 385.616210938 c 0
 47.9599609375 483.1953125 56.0654296875 575.663085938 71.6396484375 668.848632812 c 0
 82.1640625 731.817382812 136.970703125 780 202.909179688 780 c 0
 276.364257812 780 336 720.364257812 336 646.909179688 c 0
 336 624 l 1
 264 624 l 1
 264 646.909179688 l 1
 264 680.625976562 236.625976562 708 202.909179688 708 c 0
 172.642578125 708 147.485351562 685.884765625 142.654296875 656.98046875 c 0
 127.729492188 567.677734375 119.961914062 479.061523438 119.961914062 385.548828125 c 0
 119.961914062 292.034179688 127.729492188 200.322265625 142.655273438 111.017578125 c 0
 147.486328125 82.1171875 172.643554688 60 202.909179688 60 c 0
 236.625976562 60 264 88.46484375 264 121.090820312 c 1
 264 288 l 1
 204 288 l 1
 204 360 l 1
 336 360 l 1
 336 121.090820312 l 5
EndSplineSet
EndChar

StartChar: H
Encoding: 72 72 10
Width: 384
Flags: HW
LayerCount: 2
Fore
SplineSet
48 768 m 5
 120 768 l 5
 120 432 l 5
 264 432 l 5
 264 768 l 5
 336 768 l 5
 336 0 l 5
 264 0 l 5
 264 360 l 5
 120 360 l 5
 120 0 l 5
 48 0 l 5
 48 768 l 5
EndSplineSet
EndChar

StartChar: N
Encoding: 78 78 11
Width: 384
Flags: HW
LayerCount: 2
Fore
SplineSet
120 516 m 1
 276.000976562 0 l 1
 336 0 l 1
 336 768 l 1
 264 768 l 1
 264 768 263.850585938 288.984375 264 288.4921875 c 1
 119.033203125 768 l 1
 48 768 l 1
 48 0 l 1
 120 0 l 1
 120 516 l 1
EndSplineSet
EndChar

StartChar: O
Encoding: 79 79 12
Width: 408
Flags: HW
LayerCount: 2
Fore
SplineSet
265.573242188 655.865234375 m 4
 260.657226562 685.401367188 234.9609375 708 204.041992188 708 c 4
 173.122070312 708 147.424804688 685.39453125 142.509765625 655.861328125 c 4
 127.706054688 566.91015625 120.001953125 478.677734375 120.001953125 385.552734375 c 4
 120.001953125 292.426757812 127.705078125 201.090820312 142.508789062 112.138671875 c 4
 147.422851562 82.6083984375 173.12109375 60 204.041015625 60 c 4
 234.9609375 60 260.658203125 82.6044921875 265.573242188 112.138671875 c 4
 280.376953125 201.08984375 288.081054688 289.322265625 288.081054688 382.446289062 c 4
 288.081054688 475.5703125 280.376953125 566.9140625 265.573242188 655.865234375 c 4
336.596679688 100.317382812 m 4
 326.005859375 36.6953125 270.6484375 -12 204.041015625 -12 c 4
 137.432617188 -12 82.07421875 36.6982421875 71.486328125 100.31640625 c 4
 56.0380859375 193.137695312 48 288.4453125 48 385.62109375 c 4
 48 482.794921875 56.0390625 574.86328125 71.486328125 667.682617188 c 4
 82.0751953125 731.306640625 137.43359375 780 204.041992188 780 c 4
 270.6484375 780 326.005859375 731.302734375 336.596679688 667.681640625 c 4
 352.044921875 574.857421875 360.08203125 479.551757812 360.08203125 382.37890625 c 4
 360.08203125 285.205078125 352.044921875 193.140625 336.596679688 100.317382812 c 4
EndSplineSet
EndChar

StartChar: R
Encoding: 82 82 13
Width: 384
Flags: HW
LayerCount: 2
Fore
SplineSet
157.981445312 335.997070312 m 1
 120.000976562 336 l 1
 120.000976562 0 l 1
 48 0 l 1
 48 768 l 1
 157.981445312 768 l 1
 226.865234375 768 286.041015625 726.581054688 311.95703125 667.19921875 c 0
 327.33203125 631.97265625 335.861328125 593.083984375 335.861328125 552.21875 c 0
 335.861328125 511.3515625 327.330078125 472.021484375 311.953125 436.791992188 c 0
 297.215948125 403.028264525 271.961914062 375.266601562 240.02734375 357.39453125 c 1
 336.000976562 0 l 1
 261.44921875 0 l 1
 171.051757812 336.506835938 l 1
 166.6875 336.166015625 162.432617188 335.997070312 157.981445312 335.997070312 c 1
157.981445312 407.997070312 m 1
 197.342773438 407.997070312 231.15662425 431.665852276 245.965820312 465.595703125 c 0
 257.498046875 492.017578125 263.896484375 521.513671875 263.896484375 552.1640625 c 0
 263.896484375 582.813476562 257.5 611.98046875 245.967773438 638.400390625 c 0
 231.159179688 672.33203125 197.342773438 696 157.981445312 696 c 1
 120.000976562 696 l 1
 120.000976562 408 l 1
 157.981445312 407.997070312 l 1
EndSplineSet
EndChar

StartChar: I
Encoding: 73 73 14
Width: 168
Flags: HW
LayerCount: 2
Fore
SplineSet
48 768 m 5
 120 768 l 5
 120 0 l 5
 48 0 l 5
 48 768 l 5
EndSplineSet
EndChar

StartChar: J
Encoding: 74 74 15
Width: 384
Flags: HW
LayerCount: 2
Fore
SplineSet
336.004882812 138 m 1
 336.005859375 61.666015625 279.057993497 -1.0393868446 205.583007812 -10.716796875 c 0
 199.125 -11.5673828125 192.538085938 -12.005859375 185.849609375 -12.005859375 c 0
 123.877929688 -12.005859375 70.857421875 25.556640625 48 79.22265625 c 1
 48 79.2236328125 114.243164062 107.434570312 114.243164062 107.434570312 c 1
 126.12890625 79.529296875 153.69921875 59.9970703125 185.923828125 59.9970703125 c 0
 189.40234375 59.9970703125 192.827148438 60.224609375 196.185546875 60.6669921875 c 0
 234.392251601 65.6997450926 264.005859375 98.5966796875 264.004882812 138 c 1
 264.00390625 768 l 1
 336.00390625 768 l 1
 336.004882812 138 l 1
EndSplineSet
EndChar

StartChar: K
Encoding: 75 75 16
Width: 384
Flags: HW
LayerCount: 2
Fore
SplineSet
120 312 m 5
 149.84375 378.709960938 l 1
 260.965820312 0 l 1
 336 0 l 1
 195.158203125 480 l 1
 324 768 l 1
 245.125 768 l 1
 120 488.309570312 l 1
 120 768 l 1
 48 768 l 1
 48 0 l 1
 120 0 l 1
 120 312 l 5
EndSplineSet
EndChar

StartChar: L
Encoding: 76 76 17
Width: 354
Flags: HW
LayerCount: 2
Fore
SplineSet
48 0 m 5
 48 768 l 5
 120 768 l 5
 120 72 l 5
 306 72 l 5
 306 0 l 5
 48 0 l 5
EndSplineSet
EndChar

StartChar: M
Encoding: 77 77 18
Width: 432
Flags: HW
LayerCount: 2
Fore
SplineSet
120 504 m 5
 216 168 l 1
 312 504 l 1
 312 0 l 1
 384 0 l 1
 384 768 l 1
 312.547851562 768 l 1
 312.547851562 768 216 430.08203125 216 430.083007812 c 1
 119.453125 768 l 1
 48 768 l 1
 48 0 l 1
 120 0 l 1
 120 504 l 5
EndSplineSet
EndChar

StartChar: zero
Encoding: 48 48 19
Width: 408
Flags: HW
LayerCount: 2
Fore
SplineSet
265.573242188 655.865234375 m 0
 260.657226562 685.401367188 234.9609375 708 204.041992188 708 c 0
 173.122070312 708 147.424804688 685.39453125 142.509765625 655.861328125 c 0
 127.706054688 566.91015625 120.001953125 478.677734375 120.001953125 385.552734375 c 0
 120.001953125 292.426757812 127.705078125 201.090820312 142.508789062 112.138671875 c 0
 147.422851562 82.6083984375 173.12109375 60 204.041015625 60 c 0
 234.9609375 60 260.658203125 82.6044921875 265.573242188 112.138671875 c 0
 280.376953125 201.08984375 288.081054688 289.322265625 288.081054688 382.446289062 c 0
 288.081054688 475.5703125 280.376953125 566.9140625 265.573242188 655.865234375 c 0
336.596679688 100.317382812 m 0
 326.005859375 36.6953125 270.6484375 -12 204.041015625 -12 c 0
 137.432617188 -12 82.07421875 36.6982421875 71.486328125 100.31640625 c 0
 56.0380859375 193.137695312 48 288.4453125 48 385.62109375 c 0
 48 482.794921875 56.0390625 574.86328125 71.486328125 667.682617188 c 0
 82.0751953125 731.306640625 137.43359375 780 204.041992188 780 c 0
 270.6484375 780 326.005859375 731.302734375 336.596679688 667.681640625 c 0
 352.044921875 574.857421875 360.08203125 479.551757812 360.08203125 382.37890625 c 0
 360.08203125 285.205078125 352.044921875 193.140625 336.596679688 100.317382812 c 0
EndSplineSet
EndChar

StartChar: P
Encoding: 80 80 20
Width: 384
Flags: HWO
LayerCount: 2
Fore
SplineSet
157.98046875 335.997070312 m 1
 226.862304688 335.997070312 286.035041876 377.412159297 311.953125 436.791992188 c 0
 327.330078125 472.021484375 335.861328125 511.3515625 335.861328125 552.21875 c 0
 335.861328125 593.083984375 327.33203125 631.97265625 311.95703125 667.19921875 c 0
 286.041015625 726.581054688 226.865234375 768 157.981445312 768 c 1
 48 768 l 1
 48 0 l 1
 120 0 l 1
 120 336 l 1
 157.98046875 335.997070312 l 1
157.981445312 696 m 1
 197.342773438 696 231.157836447 672.330344312 245.966796875 638.399414062 c 0
 257.498046875 611.978515625 263.896484375 582.813476562 263.896484375 552.1640625 c 0
 263.896484375 521.513671875 257.498046875 492.015625 245.965820312 465.594726562 c 0
 231.15625 431.6640625 197.342773438 407.997070312 157.98046875 407.997070312 c 1
 120 408 l 1
 120 696 l 1
 157.981445312 696 l 1
EndSplineSet
EndChar

StartChar: Q
Encoding: 81 81 21
Width: 408
Flags: HW
LayerCount: 2
Fore
SplineSet
142.508789062 112.133789062 m 0
 127.705078125 201.08203125 120.000976562 292.426757812 120.000976562 385.552734375 c 0
 120.000976562 478.677734375 127.705078125 566.91015625 142.508789062 655.861328125 c 0
 147.423828125 685.395507812 173.12109375 708 204.041015625 708 c 0
 234.959960938 708 260.657226562 685.393554688 265.573242188 655.861328125 c 0
 280.377929688 566.90625 288.080078125 475.571289062 288.080078125 382.446289062 c 0
 288.080078125 289.322265625 280.377929688 201.08984375 265.573242188 112.138671875 c 0
 264.259635742 104.246115366 261.420898438 96.7275390625 257.436523438 90.1298828125 c 0
 224.258789062 140.834960938 l 1
 174.041015625 108 l 1
 174.041015625 108 205.3984375 60.0146484375 205.397460938 60.0146484375 c 0
 204.939453125 60.0048828125 204.501953125 60 204.041015625 60 c 0
 173.12109375 60 147.423828125 82.599609375 142.508789062 112.133789062 c 0
71.4853515625 100.31640625 m 0
 82.0732421875 36.6982421875 137.432617188 -12 204.041015625 -12 c 0
 219.318359375 -12 234.036132812 -9.4072265625 247.725585938 -4.701171875 c 1
 276.041015625 -48 l 1
 326.258789062 -15.1650390625 l 1
 298.696289062 26.9951171875 l 0
 318.258789062 46.4091796875 331.870117188 71.9296875 336.594726562 100.313476562 c 0
 352.044843584 193.132337917 360.08203125 285.205078125 360.08203125 382.37890625 c 0
 360.08203125 479.551757812 352.043945312 574.857421875 336.595703125 667.681640625 c 0
 326.004882812 731.302734375 270.647460938 780 204.041015625 780 c 0
 137.432617188 780 82.07421875 731.306640625 71.4853515625 667.682617188 c 0
 56.0380859375 574.86328125 48 482.794921875 48 385.62109375 c 0
 48 288.4453125 56.037109375 193.137695312 71.4853515625 100.31640625 c 0
EndSplineSet
EndChar

StartChar: T
Encoding: 84 84 22
Width: 354
Flags: HW
LayerCount: 2
Fore
SplineSet
213 0 m 5
 141 0 l 5
 141 702 l 5
 48 702 l 5
 48.0009765625 768 l 5
 306.000976562 768 l 5
 306.000976562 702 l 5
 213 702 l 5
 213 0 l 5
EndSplineSet
EndChar

StartChar: U
Encoding: 85 85 23
Width: 384
Flags: HW
LayerCount: 2
Fore
SplineSet
120.000976562 132 m 5
 120.000976562 105.340820312 134.445271015 82.0934163901 156.000976562 69.646484375 c 0
 166.576171875 63.5400390625 179 60.0458984375 192.078125 60.0458984375 c 0
 205.157226562 60.0458984375 217.42578125 63.5400390625 228.000976562 69.646484375 c 0
 249.55668211 82.0934163901 264.000976562 105.340820312 264.000976562 132 c 1
 264.000976562 768 l 1
 336 768 l 1
 336.000976562 132 l 0
 336.000976562 78.681640625 307.114257812 32.18359375 264.000976562 7.2919921875 c 0
 242.850721661 -4.91918039501 218.3125 -11.908203125 192.155273438 -11.908203125 c 0
 165.998046875 -11.908203125 141.151367188 -4.9189453125 120.000976562 7.2919921875 c 0
 76.8874186489 32.1831145511 48.0009765625 78.681640625 48.0009765625 132 c 1
 48 768 l 1
 120.000976562 768 l 1
 120.000976562 132 l 5
EndSplineSet
EndChar

StartChar: W
Encoding: 87 87 24
Width: 516
Flags: HW
LayerCount: 2
Fore
SplineSet
395.436523438 768 m 1
 339 316.494140625 l 1
 339 316.494140625 282.55859375 768 282.559570312 768 c 1
 233.440429688 768 l 1
 177.000976562 316.485351562 l 1
 120.5625 768 l 1
 48 768 l 1
 144 0 l 5
 210 0 l 1
 258 384 l 1
 306 0 l 1
 372 0 l 1
 468 768 l 1
 395.436523438 768 l 1
EndSplineSet
EndChar

StartChar: X
Encoding: 88 88 25
Width: 384
Flags: HW
LayerCount: 2
Fore
SplineSet
128.578125 768 m 1
 192 533.176757812 l 1
 255.420898438 768 l 1
 330 768 l 1
 229.290039062 395.106445312 l 1
 336 0 l 1
 261.419921875 0 l 1
 192 257.036132812 l 1
 122.580078125 0 l 1
 48 0 l 1
 154.24609375 393.38671875 l 1
 54 768 l 1
 128.578125 768 l 1
EndSplineSet
EndChar

StartChar: Y
Encoding: 89 89 26
Width: 384
Flags: HW
LayerCount: 2
Fore
SplineSet
48 768 m 1
 156 300 l 1
 156 0 l 1
 228 0 l 1
 228 300 l 1
 336 768 l 1
 262.107421875 768 l 1
 192 464.200195312 l 1
 121.891601562 768 l 5
 48 768 l 1
EndSplineSet
EndChar

StartChar: Z
Encoding: 90 90 27
Width: 384
Flags: HW
LayerCount: 2
Fore
SplineSet
66 768 m 1
 336 768 l 1
 336 708 l 1
 127.693359375 72 l 1
 336 72 l 1
 336 0 l 1
 48 0 l 1
 48 60 l 1
 256.305664062 696 l 1
 66 696 l 1
 66 768 l 1
EndSplineSet
EndChar

StartChar: one
Encoding: 49 49 28
Width: 228
Flags: HW
LayerCount: 2
Fore
SplineSet
113.982421875 767.979492188 m 1
 96.3525390625 746.913085938 73.85546875 730.430664062 48.00390625 720.000976562 c 1
 48 660 l 5
 108 660 l 1
 108 0 l 1
 180 0 l 1
 180 768 l 1
 113.982421875 767.979492188 l 1
113.999023438 767.999023438 m 0
 113.986328125 767.9921875 113.973632812 767.986328125 113.9609375 767.979492188 c 1024
EndSplineSet
EndChar

StartChar: two
Encoding: 50 50 29
Width: 384
Flags: HW
LayerCount: 2
Fore
SplineSet
120.000976562 636 m 5
 120.000976562 669.286132812 142.659932384 697.320171448 173.365234375 705.546875 c 0
 179.317382812 707.141601562 185.571289062 707.9921875 192.0234375 707.9921875 c 0
 218.682617188 707.9921875 241.909179688 693.556640625 254.354492188 672 c 0
 260.459960938 661.424804688 263.955078125 649.15625 263.955078125 636.077148438 c 0
 263.955078125 632.896484375 264.153320312 629.711914062 263.395507812 626.6875 c 0
 251.811523438 559.571289062 225.551757812 496.329101562 189.040039062 441.814453125 c 0
 104.147059323 315.06306744 52.6650390625 162.626953125 48.001953125 0.0009765625 c 1
 336.000976562 0 l 1
 336.000976562 72 l 1
 125.701171875 72.01171875 l 1
 140.927734375 192.34765625 184.536888958 305.615776577 249 401.956054688 c 0
 291.455078125 465.405273438 324.235120574 538.753820192 334.486328125 617.413085938 c 0
 335.287109375 623.557617188 335.9609375 629.723632812 335.9609375 636.0859375 c 0
 335.9609375 671.27734375 323.309570312 703.537109375 302.311523438 728.561523438 c 0
 275.887695312 760.052734375 236.232421875 779.952148438 191.948242188 779.952148438 c 0
 174.672851562 779.952148438 158.103515625 776.904296875 142.750976562 771.315429688 c 0
 87.4719429425 751.191906412 48.0009765625 698.200195312 48.0009765625 636 c 0
 48 636 48.0009765625 612 48.0009765625 612 c 1
 120.000976562 612 l 1
 120.000976562 636 l 5
188.766601562 441.995117188 m 1
 189.311523438 441.633789062 l 1025
248.727539062 402.13671875 m 1
 249.271484375 401.774414062 l 1025
EndSplineSet
EndChar

StartChar: three
Encoding: 51 51 30
Width: 384
Flags: HW
LayerCount: 2
Fore
SplineSet
168 456 m 5
 191.400390625 456 l 1
 213.60546875 456 232.30078125 471.124023438 237.7734375 491.61328125 c 0
 247.01953125 526.234375 252.015625 562.048828125 252.015625 599.568359375 c 0
 252.015625 618.703125 250.733873712 637.541924753 248.250976562 656.000976562 c 0
 244.30859375 685.310546875 219.166992188 708 188.786132812 708 c 0
 180 708 l 0
 146.884765625 708 120 681.115234375 120 648 c 1
 48 648 l 0
 48 720.852539062 107.147460938 780 180 780 c 0
 188.786132812 780 l 1
 255.625 780 310.931640625 730.078125 319.606445312 665.599609375 c 0
 322.515823999 643.974636147 324.017578125 621.908203125 324.017578125 599.493164062 c 0
 324.017578125 555.541992188 318.16796875 513.58984375 307.3359375 473.033203125 c 0
 302.790032083 456.012697177 294.623046875 440.454101562 283.6640625 427.295898438 c 1
 304.07421875 410.021484375 318.442341673 385.818955316 323.657226562 358.500976562 c 0
 331.76171875 316.045898438 336.001953125 272.2265625 336.001953125 227.424804688 c 0
 336.001953125 183.76953125 331.9765625 142.2109375 324.272460938 100.774414062 c 0
 319.079430118 72.8436889113 305.48046875 47.720703125 286.178710938 28.4189453125 c 0
 261.19921875 3.439453125 226.6796875 -12 188.59765625 -12 c 0
 186 -12 l 1
 147.916992188 -12 113.3984375 3.439453125 88.4189453125 28.4189453125 c 0
 63.439453125 53.3984375 48 87.91796875 48 126 c 0
 48 156 l 1
 120 156 l 1
 120 126 l 1
 120 107.787109375 127.383789062 91.27734375 139.330078125 79.3310546875 c 0
 151.27734375 67.3837890625 167.786132812 60 186 60 c 0
 188.59765625 60 l 1
 206.810546875 60 223.319335938 67.3837890625 235.266601562 79.3310546875 c 0
 244.498046875 88.5625 251.002929688 100.577148438 253.486328125 113.935546875 c 0
 260.392578125 151.0859375 264.001953125 188.344726562 264.001953125 227.484375 c 0
 264.001953125 267.650390625 260.19921875 306.936523438 252.93359375 345 c 0
 248.700445151 367.176805504 229.186523438 384 205.784179688 384 c 1
 168 384 l 1
 168 456 l 5
EndSplineSet
EndChar

StartChar: four
Encoding: 52 52 31
Width: 432
Flags: HW
LayerCount: 2
Fore
SplineSet
48 246 m 1
 264 768 l 1
 336 768 l 1
 336 246 l 1
 384 246 l 1
 384 180 l 1
 336 180 l 1
 336 0 l 1
 264 0 l 1
 264 180 l 1
 48 180 l 1
 48 246 l 1
264 595.3828125 m 5
 119.426757812 246 l 1
 264 246 l 1
 264 595.3828125 l 5
EndSplineSet
EndChar

StartChar: five
Encoding: 53 53 32
Width: 384
Flags: HW
LayerCount: 2
Fore
SplineSet
127.986328125 384.025390625 m 1
 133.579101562 411.362304688 157.788085938 432 186.768554688 432 c 0
 212.557617188 432 234.547851562 415.719726562 243.024414062 392.864257812 c 0
 256.515625 356.499023438 263.88671875 317.172851562 263.88671875 276.137695312 c 0
 263.88671875 220.625 250.310546875 167.759765625 226.428710938 121.602539062 c 0
 216.373046875 102.171875 201.080078125 86.18359375 182.182617188 75.2734375 c 0
 165.438044138 65.6062177126 146.012695312 60.072265625 125.3046875 60.072265625 c 0
 108.470703125 60.072265625 92.2646484375 63.7158203125 77.8779296875 70.2783203125 c 1
 77.8779296875 70.2783203125 48.005859375 4.7705078125 48.0029296875 4.7705078125 c 1
 71.478515625 -5.9365234375 97.904296875 -11.8876953125 125.37109375 -11.8876953125 c 0
 156.268554688 -11.8876953125 185.415039062 -4.337890625 211.067382812 9.015625 c 0
 245.125225204 26.744684573 272.71875 54.404296875 290.37109375 88.509765625 c 0
 319.379882812 144.555664062 335.862304688 208.755859375 335.862304688 276.168945312 c 0
 335.862304688 325.993164062 326.913085938 373.743164062 310.532226562 417.8984375 c 0
 291.884765625 468.180664062 243.504882812 504 186.768554688 504 c 0
 165.528320312 504 145.32421875 498.89453125 127.540039062 489.965820312 c 1
 130.88671875 696 l 1
 324.002929688 696 l 1
 324.002929688 768 l 1
 60.0029296875 768 l 1
 54.0029296875 384 l 1
 127.986328125 384.025390625 l 1
EndSplineSet
EndChar

StartChar: six
Encoding: 54 54 33
Width: 384
Flags: HW
LayerCount: 2
Fore
SplineSet
63.376953125 431.620117188 m 0
 85.0703125 579.057617188 171.741210938 705.483398438 293.88671875 780 c 1
 293.900390625 780.0078125 331.374023438 718.528320312 331.38671875 718.536132812 c 1
 233.947265625 659.090820312 163.193359375 560.97265625 139.146484375 445.674804688 c 0
 155.6171875 452.215820312 173.28125 455.940429688 191.953125 455.940429688 c 0
 221.897460938 455.940429688 249.889648438 446.54296875 272.708007812 430.565429688 c 0
 306.41796875 406.961914062 329.188476562 368.909179688 332.317382812 325.463867188 c 0
 334.809570312 290.868164062 336.078125 255.93359375 336.078125 220.706054688 c 0
 336.078125 185.478515625 334.809570312 153.131835938 332.317382812 118.53515625 c 0
 329.186523438 75.0908203125 306.41796875 37.037109375 272.708007812 13.4345703125 c 0
 249.888671875 -2.54296875 222.1171875 -11.921875 192.172851562 -11.921875 c 0
 157.801757812 -11.921875 126.077148438 0.3955078125 101.635742188 20.904296875 c 0
 73.326171875 44.658203125 54.576171875 79.4345703125 51.759765625 118.533203125 c 0
 49.2666015625 153.127929688 48 188.065429688 48 223.293945312 c 0
 48 294.986328125 53.240234375 362.7265625 63.376953125 431.620117188 c 0
123.575195312 123.709960938 m 0
 124.950195312 104.631835938 134.098632812 87.65234375 147.916992188 76.05859375 c 0
 159.845703125 66.0498046875 175.3046875 60.01953125 192.080078125 60.01953125 c 0
 208.854492188 60.01953125 224.232421875 66.0498046875 236.161132812 76.05859375 c 0
 249.978515625 87.6513671875 259.127929688 104.626953125 260.50390625 123.708984375 c 0
 262.87109375 156.576171875 264.077148438 187.3046875 264.077148438 220.770507812 c 0
 264.077148438 254.236328125 262.87109375 287.423828125 260.50390625 320.290039062 c 0
 259.026367188 340.788085938 248.58984375 358.833007812 233.029296875 370.416992188 c 0
 221.596679688 378.927734375 207.341796875 383.989257812 192.0078125 383.989257812 c 0
 174.510742188 383.989257812 158.534179688 377.428710938 146.40625 366.635742188 c 0
 133.438476562 355.094726562 124.899414062 338.66796875 123.575195312 320.291992188 c 0
 121.20703125 287.424804688 120.001953125 256.692382812 120.001953125 223.2265625 c 0
 120.001953125 189.759765625 121.20703125 156.577148438 123.575195312 123.709960938 c 0
EndSplineSet
EndChar

StartChar: nine
Encoding: 57 57 34
Width: 384
Flags: HW
LayerCount: 2
Fore
SplineSet
320.623046875 336.458007812 m 0
 298.9296875 189.020507812 212.258789062 62.5947265625 90.11328125 -11.921875 c 1
 90.099609375 -11.9296875 52.6259765625 49.5498046875 52.61328125 49.5419921875 c 1
 150.052734375 108.987304688 220.806640625 207.10546875 244.853515625 322.403320312 c 0
 228.3828125 315.862304688 210.71875 312.137695312 192.046875 312.137695312 c 0
 162.102539062 312.137695312 134.110351562 321.53515625 111.291992188 337.512695312 c 0
 77.58203125 361.116210938 54.8115234375 399.168945312 51.6826171875 442.614257812 c 0
 49.1904296875 477.209960938 47.921875 512.14453125 47.921875 547.372070312 c 0
 47.921875 582.599609375 49.1904296875 614.946289062 51.6826171875 649.54296875 c 0
 54.8134765625 692.987304688 77.58203125 731.041015625 111.291992188 754.643554688 c 0
 134.111328125 770.62109375 161.8828125 780 191.827148438 780 c 0
 226.198242188 780 257.922851562 767.682617188 282.364257812 747.173828125 c 0
 310.673828125 723.419921875 329.423828125 688.643554688 332.240234375 649.544921875 c 0
 334.733398438 614.950195312 336 580.012695312 336 544.784179688 c 0
 336 473.091796875 330.759765625 405.3515625 320.623046875 336.458007812 c 0
260.424804688 644.368164062 m 0
 259.049804688 663.446289062 249.901367188 680.42578125 236.083007812 692.01953125 c 0
 224.154296875 702.028320312 208.6953125 708.05859375 191.919921875 708.05859375 c 0
 175.145507812 708.05859375 159.767578125 702.028320312 147.838867188 692.01953125 c 0
 134.021484375 680.426757812 124.872070312 663.451171875 123.49609375 644.369140625 c 0
 121.12890625 611.501953125 119.922851562 580.7734375 119.922851562 547.307617188 c 0
 119.922851562 513.841796875 121.12890625 480.654296875 123.49609375 447.788085938 c 0
 124.973632812 427.290039062 135.41015625 409.245117188 150.970703125 397.661132812 c 0
 162.403320312 389.150390625 176.658203125 384.088867188 191.9921875 384.088867188 c 0
 209.489257812 384.088867188 225.465820312 390.649414062 237.59375 401.442382812 c 0
 250.561523438 412.983398438 259.100585938 429.41015625 260.424804688 447.786132812 c 0
 262.79296875 480.653320312 263.998046875 511.385742188 263.998046875 544.8515625 c 0
 263.998046875 578.318359375 262.79296875 611.500976562 260.424804688 644.368164062 c 0
EndSplineSet
EndChar

StartChar: seven
Encoding: 55 55 35
Width: 384
Flags: HW
LayerCount: 2
Fore
SplineSet
72.0068359375 0.0419921875 m 0
 72.0068359375 0.0419921875 144.669609072 0.0215095861591 144.669921875 0.0234375 c 0
 183.551757813 239.666015625 248.611328125 475.954101562 335.545898438 695.985351562 c 1
 336 768 l 1
 48 768 l 1
 48 696 l 1
 258.58203125 696.009765625 l 1
 174.029296875 475.634765625 110.016601562 239.397460938 72.0068359375 0.0419921875 c 0
EndSplineSet
EndChar

StartChar: eight
Encoding: 56 56 62
Width: 384
Flags: HW
LayerCount: 2
Fore
SplineSet
66.421875 345.311523438 m 0
 72.498046875 370.26171875 85.78515625 392.204101562 103.999023438 409.14453125 c 1
 92.533203125 420.690429688 83.439453125 434.978515625 77.4052734375 450.59765625 c 0
 62.3916015625 489.463867188 54.1572265625 531.689453125 54.1572265625 575.825195312 c 0
 54.1572265625 619.959960938 62.3916015625 662.537109375 77.4052734375 701.403320312 c 0
 95.173828125 747.399414062 139.791992188 780 192.025390625 780 c 0
 244.258789062 780 288.876953125 747.403320312 306.645507812 701.405273438 c 0
 321.658203125 662.54296875 329.893554688 620.311523438 329.893554688 576.176757812 c 0
 329.893554688 532.041015625 321.657226562 489.458007812 306.645507812 450.596679688 c 0
 300.611328125 434.9765625 291.434570312 420.771484375 280.051757812 409.145507812 c 1
 298.221679688 392.215820312 311.563476562 370.223632812 317.627929688 345.311523438 c 0
 329.622070312 296.057617188 335.979492188 244.606445312 335.979492188 191.682617188 c 0
 335.979492188 163.782226562 334.282226562 137.27734375 330.854492188 110.301757812 c 0
 325.227539062 66.0283203125 299.025961707 28.1259639593 261.998046875 6.7490234375 c 0
 241.442382812 -5.1181640625 217.595703125 -11.9111328125 192.174804688 -11.9111328125 c 0
 166.754882812 -11.9111328125 142.607421875 -5.1181640625 122.052734375 6.7490234375 c 0
 85.0245268897 28.1271485497 58.822265625 66.025390625 53.1953125 110.301757812 c 0
 49.7666015625 137.276367188 48 164.76953125 48 192.669921875 c 0
 48 245.59375 54.4287109375 296.056640625 66.421875 345.311523438 c 0
124.62109375 119.37890625 m 0
 127.353515625 97.8818359375 140.075002849 79.4820885293 158.052734375 69.1025390625 c 0
 168.032226562 63.3408203125 179.755859375 60.04296875 192.09765625 60.04296875 c 0
 204.440429688 60.04296875 216.018554688 63.3408203125 225.998046875 69.1025390625 c 0
 243.975355536 79.4818443859 256.697265625 97.8828125 259.4296875 119.377929688 c 0
 262.4765625 143.357421875 263.985351562 166.91796875 263.985351562 191.71875 c 0
 263.985351562 238.76171875 258.333007812 284.494140625 247.671875 328.276367188 c 0
 244.061523438 343.10546875 234.736328125 355.673828125 222.092773438 363.473632812 c 0
 213.364628373 368.858022604 203.025390625 372.017578125 192.026367188 372.017578125 c 0
 175.618164062 372.017578125 160.8125 365.102539062 150.366210938 354.030273438 c 0
 143.666080971 346.928649285 138.763671875 338.072265625 136.377929688 328.27734375 c 0
 125.717773438 284.49609375 120.002929688 239.638671875 120.002929688 192.596679688 c 0
 120.002929688 167.795898438 121.57421875 143.357421875 124.62109375 119.37890625 c 0
239.483398438 476.543945312 m 0
 251.391601562 507.368164062 257.920898438 541.135742188 257.920898438 576.139648438 c 0
 257.920898438 611.143554688 251.390625 644.630859375 239.482421875 675.456054688 c 0
 232.125976562 694.499023438 213.65234375 708 192.025390625 708 c 0
 170.3984375 708 151.923828125 694.501953125 144.568359375 675.458007812 c 0
 132.66015625 644.6328125 126.130859375 610.86328125 126.130859375 575.859375 c 0
 126.130859375 540.85546875 132.66015625 507.3671875 144.568359375 476.541992188 c 0
 148.780273438 465.637695312 156.573371057 456.597879459 166.586914062 450.81640625 c 0
 174.059570312 446.501953125 182.837890625 444.032226562 192.079101562 444.032226562 c 0
 201.3203125 444.032226562 209.990234375 446.501953125 217.462890625 450.81640625 c 0
 227.47758891 456.598546478 235.270507812 465.639648438 239.483398438 476.543945312 c 0
EndSplineSet
EndChar
